<svg width="370" height="289" viewBox="0 0 370 289" fill="none" xmlns="http://www.w3.org/2000/svg">
  <rect width="370" height="252" rx="32" fill="url(#paint0_linear_99_5313)" fill-opacity="0.06"/>
  <g filter="url(#filter0_d_99_5313)">
  <rect x="24" y="24" width="322" height="204" rx="16" fill="white" shape-rendering="crispEdges"/>
  <rect x="48.5" y="48.5" width="31" height="31" rx="15.5" fill="white"/>
  <g clip-path="url(#clip0_99_5313)">
  <path d="M72.0003 72.0054H66.817H63.8994L63.9305 68.7143V64.2031L72.0003 72.0054Z" fill="url(#paint1_linear_99_5313)"/>
  <path d="M70.1846 59.853C70.1691 57.7178 68.493 56 66.429 56H66.398H63.9305H63.8994V59.8209V59.853V63.6738V63.7381H66.398H66.429C68.493 63.7381 70.1691 62.0203 70.2001 59.8851V59.869C70.1846 59.869 70.1846 59.869 70.1846 59.853Z" fill="url(#paint2_linear_99_5313)"/>
  <path d="M63.5422 56H56V63.8023H63.5422V56Z" fill="url(#paint3_linear_99_5313)"/>
  <path d="M63.5422 64.2031H56V72.0054H63.5422V64.2031Z" fill="url(#paint4_linear_99_5313)"/>
  </g>
  <rect x="48.5" y="48.5" width="31" height="31" rx="15.5" stroke="#F9F9F9"/>
  <path d="M88 64C88 55.1634 95.1634 48 104 48H181C189.837 48 197 55.1634 197 64C197 72.8366 189.837 80 181 80H92C89.7909 80 88 78.2091 88 76V64Z" fill="#EBEBED"/>
  <path d="M103.124 68H101.724V64.094L98.07 58.662H99.68L102.424 62.834L105.14 58.662H106.764L103.124 64.094V68ZM108.686 68.168C106.586 68.168 105.27 66.572 105.27 64.612C105.27 62.666 106.586 61.07 108.686 61.07C110.8 61.07 112.102 62.666 112.102 64.612C112.102 66.572 110.8 68.168 108.686 68.168ZM108.686 67.048C110.044 67.048 110.786 65.9 110.786 64.612C110.786 63.338 110.044 62.19 108.686 62.19C107.342 62.19 106.586 63.338 106.586 64.612C106.586 65.9 107.342 67.048 108.686 67.048ZM119.126 68H117.866V67.076C117.348 67.636 116.494 68.168 115.458 68.168C114.016 68.168 113.302 67.44 113.302 66.012V61.238H114.562V65.592C114.562 66.712 115.122 67.048 115.99 67.048C116.774 67.048 117.488 66.6 117.866 66.096V61.238H119.126V68ZM121.982 68H120.722V61.238H121.982V62.274C122.5 61.602 123.298 61.084 124.194 61.084V62.358C124.068 62.33 123.928 62.316 123.76 62.316C123.13 62.316 122.276 62.792 121.982 63.296V68ZM131.202 62.344H129.83V68H128.57V62.344H127.45V61.238H128.57V60.79C128.57 59.334 129.424 58.522 130.628 58.522C131.062 58.522 131.44 58.606 131.734 58.774L131.44 59.712C131.272 59.614 131.062 59.558 130.838 59.558C130.208 59.558 129.83 59.978 129.83 60.79V61.238H131.202V62.344ZM137.828 68H136.568V67.076C136.05 67.636 135.196 68.168 134.16 68.168C132.718 68.168 132.004 67.44 132.004 66.012V61.238H133.264V65.592C133.264 66.712 133.824 67.048 134.692 67.048C135.476 67.048 136.19 66.6 136.568 66.096V61.238H137.828V68ZM140.685 68H139.425V58.662H140.685V68ZM143.552 68H142.292V58.662H143.552V68ZM154.193 68H152.933V63.674C152.933 62.554 152.359 62.19 151.491 62.19C150.707 62.19 149.993 62.666 149.629 63.17V68H148.369V61.238H149.629V62.19C150.077 61.644 150.973 61.07 152.023 61.07C153.451 61.07 154.193 61.826 154.193 63.254V68ZM161.222 68H159.962V67.258C159.43 67.846 158.66 68.168 157.75 68.168C156.63 68.168 155.398 67.412 155.398 65.928C155.398 64.388 156.616 63.716 157.75 63.716C158.66 63.716 159.444 64.01 159.962 64.612V63.492C159.962 62.652 159.276 62.148 158.31 62.148C157.54 62.148 156.882 62.442 156.28 63.044L155.734 62.176C156.49 61.434 157.414 61.07 158.506 61.07C159.976 61.07 161.222 61.714 161.222 63.436V68ZM159.962 66.516V65.368C159.584 64.864 158.926 64.598 158.226 64.598C157.316 64.598 156.672 65.144 156.672 65.942C156.672 66.74 157.316 67.286 158.226 67.286C158.926 67.286 159.584 67.02 159.962 66.516ZM172.319 68H171.059V63.492C171.059 62.708 170.709 62.19 169.883 62.19C169.197 62.19 168.525 62.666 168.203 63.156V68H166.943V63.492C166.943 62.708 166.607 62.19 165.753 62.19C165.095 62.19 164.437 62.68 164.101 63.17V68H162.841V61.238H164.101V62.19C164.381 61.77 165.277 61.07 166.285 61.07C167.307 61.07 167.909 61.602 168.119 62.33C168.511 61.7 169.407 61.07 170.401 61.07C171.647 61.07 172.319 61.756 172.319 63.114V68ZM173.505 64.612C173.505 62.652 174.919 61.07 176.893 61.07C178.923 61.07 180.183 62.652 180.183 64.724V65.032H174.835C174.933 66.18 175.773 67.132 177.131 67.132C177.845 67.132 178.629 66.852 179.133 66.334L179.721 67.16C179.049 67.818 178.097 68.168 177.005 68.168C174.989 68.168 173.505 66.74 173.505 64.612ZM176.893 62.106C175.535 62.106 174.891 63.198 174.821 64.122H178.951C178.923 63.226 178.321 62.106 176.893 62.106ZM182.044 64.164C182.044 63.226 182.716 62.75 183.346 62.302C183.906 61.91 184.424 61.56 184.424 60.916C184.424 60.3 183.948 59.768 182.94 59.768C181.988 59.768 181.344 60.188 180.854 60.832L180.042 59.936C180.728 59.054 181.778 58.522 183.08 58.522C184.816 58.522 185.866 59.474 185.866 60.706C185.866 61.868 185.068 62.442 184.34 62.946C183.78 63.352 183.262 63.702 183.262 64.29C183.262 64.514 183.402 64.78 183.598 64.948L182.562 65.34C182.212 65.004 182.044 64.612 182.044 64.164ZM182.086 67.272C182.086 66.796 182.478 66.404 182.954 66.404C183.43 66.404 183.836 66.796 183.836 67.272C183.836 67.748 183.43 68.154 182.954 68.154C182.478 68.154 182.086 67.748 182.086 67.272Z" fill="#F9F9F9"/>
  <path d="M103.124 68V69H104.124V68H103.124ZM101.724 68H100.724V69H101.724V68ZM101.724 64.094H102.724V63.789L102.554 63.5358L101.724 64.094ZM98.07 58.662V57.662H96.1921L97.2403 59.2201L98.07 58.662ZM99.68 58.662L100.515 58.1125L100.219 57.662H99.68V58.662ZM102.424 62.834L101.589 63.3835L102.428 64.6603L103.262 63.3796L102.424 62.834ZM105.14 58.662V57.662H104.598L104.302 58.1164L105.14 58.662ZM106.764 58.662L107.595 59.2187L108.638 57.662H106.764V58.662ZM103.124 64.094L102.293 63.5373L102.124 63.7899V64.094H103.124ZM103.124 67H101.724V69H103.124V67ZM102.724 68V64.094H100.724V68H102.724ZM102.554 63.5358L98.8997 58.1038L97.2403 59.2201L100.894 64.6522L102.554 63.5358ZM98.07 59.662H99.68V57.662H98.07V59.662ZM98.8445 59.2115L101.589 63.3835L103.259 62.2845L100.515 58.1125L98.8445 59.2115ZM103.262 63.3796L105.978 59.2076L104.302 58.1164L101.586 62.2884L103.262 63.3796ZM105.14 59.662H106.764V57.662H105.14V59.662ZM105.933 58.1053L102.293 63.5373L103.955 64.6507L107.595 59.2187L105.933 58.1053ZM102.124 64.094V68H104.124V64.094H102.124ZM108.686 67.168C107.217 67.168 106.27 66.1015 106.27 64.612H104.27C104.27 67.0425 105.955 69.168 108.686 69.168V67.168ZM106.27 64.612C106.27 63.1392 107.214 62.07 108.686 62.07V60.07C105.958 60.07 104.27 62.1928 104.27 64.612H106.27ZM108.686 62.07C109.475 62.07 110.058 62.3606 110.45 62.7876C110.852 63.2246 111.102 63.8599 111.102 64.612H113.102C113.102 63.4181 112.702 62.2824 111.923 61.4349C111.136 60.5774 110.011 60.07 108.686 60.07V62.07ZM111.102 64.612C111.102 65.3728 110.85 66.0116 110.449 66.4496C110.057 66.8775 109.475 67.168 108.686 67.168V69.168C110.011 69.168 111.137 68.6605 111.924 67.8004C112.703 66.9504 113.102 65.8112 113.102 64.612H111.102ZM108.686 68.048C109.679 68.048 110.489 67.6149 111.029 66.9343C111.55 66.2772 111.786 65.4365 111.786 64.612H109.786C109.786 65.0755 109.651 65.4528 109.462 65.6917C109.291 65.9071 109.051 66.048 108.686 66.048V68.048ZM111.786 64.612C111.786 63.7923 111.549 62.955 111.028 62.3004C110.488 61.6228 109.678 61.19 108.686 61.19V63.19C109.052 63.19 109.292 63.3312 109.463 63.5461C109.652 63.784 109.786 64.1577 109.786 64.612H111.786ZM108.686 61.19C107.698 61.19 106.89 61.6246 106.351 62.2986C105.829 62.9511 105.586 63.7881 105.586 64.612H107.586C107.586 64.1619 107.721 63.7879 107.913 63.5479C108.088 63.3294 108.33 63.19 108.686 63.19V61.19ZM105.586 64.612C105.586 65.4407 105.828 66.2811 106.35 66.9362C106.889 67.6131 107.698 68.048 108.686 68.048V66.048C108.33 66.048 108.089 65.9089 107.914 65.6898C107.722 65.4489 107.586 65.0713 107.586 64.612H105.586ZM119.126 68V69H120.126V68H119.126ZM117.866 68H116.866V69H117.866V68ZM117.866 67.076H118.866V64.5223L117.132 66.397L117.866 67.076ZM113.302 61.238V60.238H112.302V61.238H113.302ZM114.562 61.238H115.562V60.238H114.562V61.238ZM117.866 66.096L118.666 66.696L118.866 66.4293V66.096H117.866ZM117.866 61.238V60.238H116.866V61.238H117.866ZM119.126 61.238H120.126V60.238H119.126V61.238ZM119.126 67H117.866V69H119.126V67ZM118.866 68V67.076H116.866V68H118.866ZM117.132 66.397C116.751 66.8085 116.147 67.168 115.458 67.168V69.168C116.841 69.168 117.945 68.4635 118.6 67.755L117.132 66.397ZM115.458 67.168C114.893 67.168 114.654 67.0265 114.548 66.9201C114.441 66.8128 114.302 66.5719 114.302 66.012H112.302C112.302 66.8801 112.519 67.7171 113.13 68.3309C113.742 68.9455 114.58 69.168 115.458 69.168V67.168ZM114.302 66.012V61.238H112.302V66.012H114.302ZM113.302 62.238H114.562V60.238H113.302V62.238ZM113.562 61.238V65.592H115.562V61.238H113.562ZM113.562 65.592C113.562 66.3041 113.741 66.9962 114.281 67.4828C114.8 67.9505 115.457 68.048 115.99 68.048V66.048C115.654 66.048 115.598 65.9775 115.62 65.9972C115.663 66.0358 115.562 65.9999 115.562 65.592H113.562ZM115.99 68.048C117.135 68.048 118.128 67.4126 118.666 66.696L117.066 65.496C116.847 65.7874 116.413 66.048 115.99 66.048V68.048ZM118.866 66.096V61.238H116.866V66.096H118.866ZM117.866 62.238H119.126V60.238H117.866V62.238ZM118.126 61.238V68H120.126V61.238H118.126ZM121.982 68V69H122.982V68H121.982ZM120.722 68H119.722V69H120.722V68ZM120.722 61.238V60.238H119.722V61.238H120.722ZM121.982 61.238H122.982V60.238H121.982V61.238ZM121.982 62.274H120.982V65.2093L122.774 62.8845L121.982 62.274ZM124.194 61.084H125.194V60.084H124.194V61.084ZM124.194 62.358L123.977 63.3342L125.194 63.6046V62.358H124.194ZM121.982 63.296L121.118 62.7921L120.982 63.0257V63.296H121.982ZM121.982 67H120.722V69H121.982V67ZM121.722 68V61.238H119.722V68H121.722ZM120.722 62.238H121.982V60.238H120.722V62.238ZM120.982 61.238V62.274H122.982V61.238H120.982ZM122.774 62.8845C123.16 62.3845 123.691 62.084 124.194 62.084V60.084C122.905 60.084 121.841 60.8195 121.19 61.6635L122.774 62.8845ZM123.194 61.084V62.358H125.194V61.084H123.194ZM124.411 61.3818C124.199 61.3347 123.984 61.316 123.76 61.316V63.316C123.872 63.316 123.937 63.3253 123.977 63.3342L124.411 61.3818ZM123.76 61.316C123.223 61.316 122.684 61.5079 122.261 61.742C121.844 61.9728 121.389 62.3279 121.118 62.7921L122.846 63.7999C122.869 63.7601 122.988 63.6252 123.229 63.492C123.464 63.3621 123.667 63.316 123.76 63.316V61.316ZM120.982 63.296V68H122.982V63.296H120.982ZM131.202 62.344V63.344H132.202V62.344H131.202ZM129.83 62.344V61.344H128.83V62.344H129.83ZM129.83 68V69H130.83V68H129.83ZM128.57 68H127.57V69H128.57V68ZM128.57 62.344H129.57V61.344H128.57V62.344ZM127.45 62.344H126.45V63.344H127.45V62.344ZM127.45 61.238V60.238H126.45V61.238H127.45ZM128.57 61.238V62.238H129.57V61.238H128.57ZM131.734 58.774L132.688 59.0731L132.929 58.3051L132.23 57.9058L131.734 58.774ZM131.44 59.712L130.936 60.5758L132.019 61.2076L132.394 60.0111L131.44 59.712ZM129.83 61.238H128.83V62.238H129.83V61.238ZM131.202 61.238H132.202V60.238H131.202V61.238ZM131.202 61.344H129.83V63.344H131.202V61.344ZM128.83 62.344V68H130.83V62.344H128.83ZM129.83 67H128.57V69H129.83V67ZM129.57 68V62.344H127.57V68H129.57ZM128.57 61.344H127.45V63.344H128.57V61.344ZM128.45 62.344V61.238H126.45V62.344H128.45ZM127.45 62.238H128.57V60.238H127.45V62.238ZM129.57 61.238V60.79H127.57V61.238H129.57ZM129.57 60.79C129.57 60.2569 129.723 59.9565 129.874 59.797C130.021 59.6416 130.257 59.522 130.628 59.522V57.522C129.795 57.522 129.002 57.8084 128.421 58.423C127.844 59.0335 127.57 59.8671 127.57 60.79H129.57ZM130.628 59.522C130.942 59.522 131.136 59.5841 131.238 59.6422L132.23 57.9058C131.744 57.6279 131.181 57.522 130.628 57.522V59.522ZM130.78 58.4749L130.486 59.4129L132.394 60.0111L132.688 59.0731L130.78 58.4749ZM131.944 58.8482C131.61 58.6535 131.224 58.558 130.838 58.558V60.558C130.867 60.558 130.891 60.5617 130.91 60.5664C130.928 60.5712 130.936 60.576 130.936 60.5758L131.944 58.8482ZM130.838 58.558C130.287 58.558 129.73 58.7517 129.332 59.2268C128.955 59.6752 128.83 60.2448 128.83 60.79H130.83C130.83 60.5232 130.893 60.4768 130.864 60.5122C130.847 60.5323 130.823 60.5495 130.802 60.5584C130.784 60.5657 130.791 60.558 130.838 60.558V58.558ZM128.83 60.79V61.238H130.83V60.79H128.83ZM129.83 62.238H131.202V60.238H129.83V62.238ZM130.202 61.238V62.344H132.202V61.238H130.202ZM137.828 68V69H138.828V68H137.828ZM136.568 68H135.568V69H136.568V68ZM136.568 67.076H137.568V64.5223L135.834 66.397L136.568 67.076ZM132.004 61.238V60.238H131.004V61.238H132.004ZM133.264 61.238H134.264V60.238H133.264V61.238ZM136.568 66.096L137.368 66.696L137.568 66.4293V66.096H136.568ZM136.568 61.238V60.238H135.568V61.238H136.568ZM137.828 61.238H138.828V60.238H137.828V61.238ZM137.828 67H136.568V69H137.828V67ZM137.568 68V67.076H135.568V68H137.568ZM135.834 66.397C135.454 66.8085 134.849 67.168 134.16 67.168V69.168C135.543 69.168 136.647 68.4635 137.303 67.755L135.834 66.397ZM134.16 67.168C133.596 67.168 133.356 67.0265 133.251 66.9201C133.144 66.8128 133.004 66.5719 133.004 66.012H131.004C131.004 66.8801 131.222 67.7171 131.833 68.3309C132.445 68.9455 133.283 69.168 134.16 69.168V67.168ZM133.004 66.012V61.238H131.004V66.012H133.004ZM132.004 62.238H133.264V60.238H132.004V62.238ZM132.264 61.238V65.592H134.264V61.238H132.264ZM132.264 65.592C132.264 66.3041 132.444 66.9962 132.983 67.4828C133.502 67.9505 134.16 68.048 134.692 68.048V66.048C134.357 66.048 134.301 65.9775 134.323 65.9972C134.365 66.0358 134.264 65.9999 134.264 65.592H132.264ZM134.692 68.048C135.837 68.048 136.831 67.4126 137.368 66.696L135.768 65.496C135.55 65.7874 135.116 66.048 134.692 66.048V68.048ZM137.568 66.096V61.238H135.568V66.096H137.568ZM136.568 62.238H137.828V60.238H136.568V62.238ZM136.828 61.238V68H138.828V61.238H136.828ZM140.685 68V69H141.685V68H140.685ZM139.425 68H138.425V69H139.425V68ZM139.425 58.662V57.662H138.425V58.662H139.425ZM140.685 58.662H141.685V57.662H140.685V58.662ZM140.685 67H139.425V69H140.685V67ZM140.425 68V58.662H138.425V68H140.425ZM139.425 59.662H140.685V57.662H139.425V59.662ZM139.685 58.662V68H141.685V58.662H139.685ZM143.552 68V69H144.552V68H143.552ZM142.292 68H141.292V69H142.292V68ZM142.292 58.662V57.662H141.292V58.662H142.292ZM143.552 58.662H144.552V57.662H143.552V58.662ZM143.552 67H142.292V69H143.552V67ZM143.292 68V58.662H141.292V68H143.292ZM142.292 59.662H143.552V57.662H142.292V59.662ZM142.552 58.662V68H144.552V58.662H142.552ZM154.193 68V69H155.193V68H154.193ZM152.933 68H151.933V69H152.933V68ZM149.629 63.17L148.819 62.5845L148.629 62.8466V63.17H149.629ZM149.629 68V69H150.629V68H149.629ZM148.369 68H147.369V69H148.369V68ZM148.369 61.238V60.238H147.369V61.238H148.369ZM149.629 61.238H150.629V60.238H149.629V61.238ZM149.629 62.19H148.629V64.9852L150.402 62.8243L149.629 62.19ZM154.193 67H152.933V69H154.193V67ZM153.933 68V63.674H151.933V68H153.933ZM153.933 63.674C153.933 62.9544 153.747 62.2638 153.214 61.7748C152.697 61.3013 152.04 61.19 151.491 61.19V63.19C151.811 63.19 151.875 63.2607 151.862 63.2492C151.833 63.2222 151.933 63.2736 151.933 63.674H153.933ZM151.491 61.19C150.326 61.19 149.333 61.873 148.819 62.5845L150.44 63.7555C150.654 63.459 151.088 63.19 151.491 63.19V61.19ZM148.629 63.17V68H150.629V63.17H148.629ZM149.629 67H148.369V69H149.629V67ZM149.369 68V61.238H147.369V68H149.369ZM148.369 62.238H149.629V60.238H148.369V62.238ZM148.629 61.238V62.19H150.629V61.238H148.629ZM150.402 62.8243C150.693 62.4701 151.321 62.07 152.023 62.07V60.07C150.626 60.07 149.462 60.8179 148.856 61.5557L150.402 62.8243ZM152.023 62.07C152.569 62.07 152.816 62.2122 152.933 62.3302C153.052 62.4499 153.193 62.7038 153.193 63.254H155.193C155.193 62.3762 154.964 61.5381 154.354 60.9228C153.743 60.3058 152.906 60.07 152.023 60.07V62.07ZM153.193 63.254V68H155.193V63.254H153.193ZM161.222 68V69H162.222V68H161.222ZM159.962 68H158.962V69H159.962V68ZM159.962 67.258H160.962V64.6622L159.22 66.5871L159.962 67.258ZM159.962 64.612L159.204 65.2642L160.962 67.3073V64.612H159.962ZM156.28 63.044L155.433 63.5765L156.101 64.6373L156.987 63.7511L156.28 63.044ZM155.734 62.176L155.033 61.4623L154.458 62.0266L154.887 62.7085L155.734 62.176ZM159.962 66.516L160.762 67.116L160.962 66.8493V66.516H159.962ZM159.962 65.368H160.962V65.0347L160.762 64.768L159.962 65.368ZM161.222 67H159.962V69H161.222V67ZM160.962 68V67.258H158.962V68H160.962ZM159.22 66.5871C158.902 66.9384 158.416 67.168 157.75 67.168V69.168C158.903 69.168 159.957 68.7536 160.703 67.9289L159.22 66.5871ZM157.75 67.168C157.4 67.168 157.046 67.0469 156.795 66.8373C156.567 66.6463 156.398 66.3638 156.398 65.928H154.398C154.398 68.1246 156.253 69.168 157.75 69.168V67.168ZM156.398 65.928C156.398 65.453 156.571 65.1886 156.777 65.0224C157.012 64.8325 157.364 64.716 157.75 64.716V62.716C157.001 62.716 156.177 62.9355 155.52 63.4666C154.833 64.0214 154.398 64.863 154.398 65.928H156.398ZM157.75 64.716C158.449 64.716 158.923 64.9376 159.204 65.2642L160.72 63.9598C159.965 63.0824 158.87 62.716 157.75 62.716V64.716ZM160.962 64.612V63.492H158.962V64.612H160.962ZM160.962 63.492C160.962 62.7711 160.654 62.1442 160.118 61.7205C159.606 61.3158 158.956 61.148 158.31 61.148V63.148C158.63 63.148 158.805 63.2322 158.878 63.2895C158.911 63.3161 158.928 63.3399 158.938 63.3605C158.948 63.3811 158.962 63.4207 158.962 63.492H160.962ZM158.31 61.148C157.241 61.148 156.337 61.5726 155.573 62.3369L156.987 63.7511C157.426 63.3114 157.839 63.148 158.31 63.148V61.148ZM157.126 62.5115L156.58 61.6435L154.887 62.7085L155.433 63.5765L157.126 62.5115ZM156.434 62.8897C156.994 62.3406 157.662 62.07 158.506 62.07V60.07C157.165 60.07 155.986 60.5274 155.033 61.4623L156.434 62.8897ZM158.506 62.07C159.116 62.07 159.551 62.2069 159.81 62.4035C160.024 62.5664 160.222 62.8452 160.222 63.436H162.222C162.222 62.3048 161.796 61.4006 161.02 60.811C160.288 60.2551 159.365 60.07 158.506 60.07V62.07ZM160.222 63.436V68H162.222V63.436H160.222ZM160.962 66.516V65.368H158.962V66.516H160.962ZM160.762 64.768C160.148 63.95 159.154 63.598 158.226 63.598V65.598C158.698 65.598 159.019 65.778 159.162 65.968L160.762 64.768ZM158.226 63.598C157.574 63.598 156.942 63.7943 156.455 64.2125C155.957 64.6407 155.672 65.2547 155.672 65.942H157.672C157.672 65.8313 157.708 65.7733 157.759 65.729C157.823 65.6747 157.967 65.598 158.226 65.598V63.598ZM155.672 65.942C155.672 66.6293 155.957 67.2433 156.455 67.6715C156.942 68.0897 157.574 68.286 158.226 68.286V66.286C157.967 66.286 157.823 66.2093 157.759 66.155C157.708 66.1107 157.672 66.0527 157.672 65.942H155.672ZM158.226 68.286C159.154 68.286 160.148 67.934 160.762 67.116L159.162 65.916C159.019 66.106 158.698 66.286 158.226 66.286V68.286ZM172.319 68V69H173.319V68H172.319ZM171.059 68H170.059V69H171.059V68ZM168.203 63.156L167.367 62.6068L167.203 62.8568V63.156H168.203ZM168.203 68V69H169.203V68H168.203ZM166.943 68H165.943V69H166.943V68ZM164.101 63.17L163.276 62.6045L163.101 62.8601V63.17H164.101ZM164.101 68V69H165.101V68H164.101ZM162.841 68H161.841V69H162.841V68ZM162.841 61.238V60.238H161.841V61.238H162.841ZM164.101 61.238H165.101V60.238H164.101V61.238ZM164.101 62.19H163.101V65.4928L164.933 62.7447L164.101 62.19ZM168.119 62.33L167.158 62.6072L167.781 64.7661L168.968 62.8583L168.119 62.33ZM172.319 67H171.059V69H172.319V67ZM172.059 68V63.492H170.059V68H172.059ZM172.059 63.492C172.059 62.9714 171.945 62.3795 171.547 61.9045C171.122 61.3981 170.516 61.19 169.883 61.19V63.19C169.986 63.19 170.03 63.2062 170.037 63.209C170.039 63.2098 170.026 63.2032 170.014 63.1895C169.997 63.1695 170.059 63.2286 170.059 63.492H172.059ZM169.883 61.19C168.781 61.19 167.826 61.909 167.367 62.6068L169.039 63.7052C169.113 63.5919 169.251 63.4508 169.429 63.3418C169.607 63.2329 169.767 63.19 169.883 63.19V61.19ZM167.203 63.156V68H169.203V63.156H167.203ZM168.203 67H166.943V69H168.203V67ZM167.943 68V63.492H165.943V68H167.943ZM167.943 63.492C167.943 62.98 167.836 62.384 167.434 61.9045C167.005 61.392 166.39 61.19 165.753 61.19V63.19C165.867 63.19 165.917 63.2075 165.927 63.2113C165.931 63.2128 165.916 63.2061 165.902 63.1895C165.881 63.165 165.943 63.22 165.943 63.492H167.943ZM165.753 61.19C165.181 61.19 164.667 61.3993 164.269 61.6526C163.868 61.9076 163.521 62.2466 163.276 62.6045L164.926 63.7355C165.016 63.6034 165.166 63.4524 165.343 63.3399C165.522 63.2257 165.667 63.19 165.753 63.19V61.19ZM163.101 63.17V68H165.101V63.17H163.101ZM164.101 67H162.841V69H164.101V67ZM163.841 68V61.238H161.841V68H163.841ZM162.841 62.238H164.101V60.238H162.841V62.238ZM163.101 61.238V62.19H165.101V61.238H163.101ZM164.933 62.7447C164.97 62.6892 165.139 62.5048 165.429 62.3334C165.707 62.1691 166.008 62.07 166.285 62.07V60.07C165.554 60.07 164.903 60.3209 164.411 60.6116C163.931 60.8952 163.512 61.2708 163.269 61.6353L164.933 62.7447ZM166.285 62.07C166.619 62.07 166.808 62.1546 166.914 62.2325C167.02 62.3106 167.107 62.4291 167.158 62.6072L169.08 62.0528C168.921 61.5029 168.602 60.9914 168.099 60.6215C167.596 60.2514 166.973 60.07 166.285 60.07V62.07ZM168.968 62.8583C169.202 62.4825 169.796 62.07 170.401 62.07V60.07C169.018 60.07 167.82 60.9175 167.27 61.8017L168.968 62.8583ZM170.401 62.07C170.844 62.07 171.023 62.1885 171.102 62.271C171.188 62.3625 171.319 62.5868 171.319 63.114H173.319C173.319 62.2832 173.113 61.4855 172.553 60.8945C171.983 60.2945 171.203 60.07 170.401 60.07V62.07ZM171.319 63.114V68H173.319V63.114H171.319ZM180.183 65.032V66.032H181.183V65.032H180.183ZM174.835 65.032V64.032H173.746L173.839 65.1171L174.835 65.032ZM179.133 66.334L179.948 65.7541L179.253 64.7773L178.416 65.6366L179.133 66.334ZM179.721 67.16L180.421 67.8745L181.032 67.2765L180.536 66.5801L179.721 67.16ZM174.821 64.122L173.824 64.0465L173.743 65.122H174.821V64.122ZM178.951 64.122V65.122H179.983L179.951 64.0908L178.951 64.122ZM174.505 64.612C174.505 63.1422 175.532 62.07 176.893 62.07V60.07C174.307 60.07 172.505 62.1618 172.505 64.612H174.505ZM176.893 62.07C177.629 62.07 178.172 62.3474 178.545 62.7759C178.929 63.2183 179.183 63.8858 179.183 64.724H181.183C181.183 63.4902 180.807 62.3307 180.054 61.4641C179.289 60.5836 178.188 60.07 176.893 60.07V62.07ZM179.183 64.724V65.032H181.183V64.724H179.183ZM180.183 64.032H174.835V66.032H180.183V64.032ZM173.839 65.1171C173.976 66.7294 175.202 68.132 177.131 68.132V66.132C176.344 66.132 175.89 65.6306 175.832 64.9469L173.839 65.1171ZM177.131 68.132C178.07 68.132 179.128 67.7732 179.85 67.0314L178.416 65.6366C178.13 65.9308 177.621 66.132 177.131 66.132V68.132ZM178.319 66.9139L178.907 67.7399L180.536 66.5801L179.948 65.7541L178.319 66.9139ZM179.022 66.4455C178.569 66.8887 177.885 67.168 177.005 67.168V69.168C178.31 69.168 179.529 68.7473 180.421 67.8745L179.022 66.4455ZM177.005 67.168C176.239 67.168 175.626 66.9002 175.206 66.4809C174.788 66.0628 174.505 65.4365 174.505 64.612H172.505C172.505 65.9155 172.964 67.0672 173.792 67.8951C174.619 68.7218 175.756 69.168 177.005 69.168V67.168ZM176.893 61.106C175.915 61.106 175.144 61.5116 174.621 62.1095C174.12 62.6831 173.873 63.4008 173.824 64.0465L175.818 64.1975C175.839 63.9192 175.949 63.6289 176.127 63.4255C176.284 63.2464 176.513 63.106 176.893 63.106V61.106ZM174.821 65.122H178.951V63.122H174.821V65.122ZM179.951 64.0908C179.931 63.4511 179.709 62.7202 179.21 62.1311C178.686 61.514 177.899 61.106 176.893 61.106V63.106C177.315 63.106 177.543 63.258 177.685 63.4249C177.85 63.6198 177.944 63.8969 177.952 64.1532L179.951 64.0908ZM183.346 62.302L182.772 61.4827L182.766 61.487L183.346 62.302ZM180.854 60.832L180.113 61.5035L180.921 62.3952L181.65 61.4375L180.854 60.832ZM180.042 59.936L179.253 59.3221L178.737 59.9851L179.301 60.6075L180.042 59.936ZM184.34 62.946L183.771 62.1238L183.762 62.13L183.753 62.1364L184.34 62.946ZM183.598 64.948L183.952 65.8833L185.529 65.2864L184.249 64.1887L183.598 64.948ZM182.562 65.34L181.869 66.0614L182.325 66.4988L182.916 66.2753L182.562 65.34ZM183.044 64.164C183.044 63.811 183.227 63.6137 183.925 63.117L182.766 61.487C182.205 61.8863 181.044 62.641 181.044 64.164H183.044ZM183.919 63.1212C184.169 62.9463 184.542 62.6947 184.831 62.3803C185.154 62.0288 185.424 61.5493 185.424 60.916H183.424C183.424 60.9267 183.435 60.9442 183.359 61.0267C183.249 61.1463 183.083 61.2657 182.773 61.4828L183.919 63.1212ZM185.424 60.916C185.424 60.3379 185.193 59.7655 184.711 59.3517C184.239 58.9471 183.614 58.768 182.94 58.768V60.768C183.274 60.768 183.391 60.8549 183.409 60.8703C183.416 60.8765 183.424 60.8781 183.424 60.916H185.424ZM182.94 58.768C181.622 58.768 180.702 59.3803 180.058 60.2265L181.65 61.4375C181.986 60.9957 182.354 60.768 182.94 60.768V58.768ZM181.595 60.1605L180.783 59.2645L179.301 60.6075L180.113 61.5035L181.595 60.1605ZM180.831 60.5499C181.318 59.9238 182.071 59.522 183.08 59.522V57.522C181.485 57.522 180.138 58.1842 179.253 59.3221L180.831 60.5499ZM183.08 59.522C183.771 59.522 184.228 59.7108 184.491 59.9262C184.742 60.1315 184.866 60.3951 184.866 60.706H186.866C186.866 59.7849 186.465 58.9565 185.757 58.3778C185.061 57.8092 184.125 57.522 183.08 57.522V59.522ZM184.866 60.706C184.866 61.2912 184.535 61.5948 183.771 62.1238L184.909 63.7682C185.601 63.2892 186.866 62.4448 186.866 60.706H184.866ZM183.753 62.1364C183.508 62.3142 183.143 62.5669 182.863 62.864C182.554 63.1917 182.262 63.6593 182.262 64.29H184.262C184.262 64.29 184.262 64.2904 184.262 64.2911C184.262 64.2919 184.262 64.2929 184.262 64.2942C184.261 64.2968 184.261 64.2999 184.26 64.3033C184.259 64.3066 184.258 64.3095 184.258 64.3117C184.257 64.3139 184.256 64.3149 184.257 64.3147C184.257 64.3133 184.27 64.2876 184.319 64.2355C184.369 64.1822 184.442 64.1175 184.55 64.0337C184.659 63.9481 184.777 63.8641 184.927 63.7556L183.753 62.1364ZM182.262 64.29C182.262 64.8682 182.582 65.3939 182.947 65.7073L184.249 64.1887C184.253 64.1927 184.253 64.1934 184.251 64.19C184.248 64.1868 184.246 64.1835 184.245 64.182C184.245 64.1803 184.248 64.1854 184.251 64.1994C184.255 64.2126 184.262 64.2434 184.262 64.29H182.262ZM183.244 64.0127L182.208 64.4047L182.916 66.2753L183.952 65.8833L183.244 64.0127ZM183.255 64.6186C183.091 64.4615 183.044 64.3261 183.044 64.164H181.044C181.044 64.8979 181.333 65.5465 181.869 66.0614L183.255 64.6186ZM183.086 67.272C183.086 67.3137 183.068 67.3471 183.049 67.3666C183.029 67.3862 182.996 67.404 182.954 67.404V65.404C181.926 65.404 181.086 66.2437 181.086 67.272H183.086ZM182.954 67.404C182.915 67.404 182.888 67.3883 182.874 67.3743C182.859 67.3595 182.836 67.3248 182.836 67.272H184.836C184.836 66.2231 183.961 65.404 182.954 65.404V67.404ZM182.836 67.272C182.836 67.2219 182.857 67.1941 182.866 67.1844C182.876 67.1747 182.904 67.154 182.954 67.154V69.154C183.982 69.154 184.836 68.3003 184.836 67.272H182.836ZM182.954 67.154C183.007 67.154 183.041 67.177 183.056 67.1922C183.07 67.2065 183.086 67.2328 183.086 67.272H181.086C181.086 68.2795 181.905 69.154 182.954 69.154V67.154Z" fill="#F9F9F9"/>
  <path d="M196.5 108C196.5 99.4396 203.44 92.5 212 92.5H266C274.56 92.5 281.5 99.4396 281.5 108V120C281.5 121.933 279.933 123.5 278 123.5H212C203.44 123.5 196.5 116.56 196.5 108Z" fill="#F9F9F9"/>
  <path d="M196.5 108C196.5 99.4396 203.44 92.5 212 92.5H266C274.56 92.5 281.5 99.4396 281.5 108V120C281.5 121.933 279.933 123.5 278 123.5H212C203.44 123.5 196.5 116.56 196.5 108Z" stroke="#F9F9F9"/>
  <rect x="290" y="92" width="32" height="32" rx="16" fill="#EBEBED"/>
  <path d="M311.78 113H309.492V105.304L306.484 113H305.492L302.484 105.304V113H300.212V102.328H303.396L305.988 109L308.58 102.328H311.78V113Z" fill="#F9F9F9"/>
  <path d="M311.78 113V114H312.78V113H311.78ZM309.492 113H308.492V114H309.492V113ZM309.492 105.304H310.492L308.561 104.94L309.492 105.304ZM306.484 113V114H307.167L307.416 113.364L306.484 113ZM305.492 113L304.561 113.364L304.809 114H305.492V113ZM302.484 105.304L303.416 104.94L301.484 105.304H302.484ZM302.484 113V114H303.484V113H302.484ZM300.212 113H299.212V114H300.212V113ZM300.212 102.328V101.328H299.212V102.328H300.212ZM303.396 102.328L304.328 101.966L304.081 101.328H303.396V102.328ZM305.988 109L305.056 109.362L305.988 111.761L306.92 109.362L305.988 109ZM308.58 102.328V101.328H307.896L307.648 101.966L308.58 102.328ZM311.78 102.328H312.78V101.328H311.78V102.328ZM311.78 112H309.492V114H311.78V112ZM310.492 113V105.304H308.492V113H310.492ZM308.561 104.94L305.553 112.636L307.416 113.364L310.424 105.668L308.561 104.94ZM306.484 112H305.492V114H306.484V112ZM306.424 112.636L303.416 104.94L301.553 105.668L304.561 113.364L306.424 112.636ZM301.484 105.304V113H303.484V105.304H301.484ZM302.484 112H300.212V114H302.484V112ZM301.212 113V102.328H299.212V113H301.212ZM300.212 103.328H303.396V101.328H300.212V103.328ZM302.464 102.69L305.056 109.362L306.92 108.638L304.328 101.966L302.464 102.69ZM306.92 109.362L309.512 102.69L307.648 101.966L305.056 108.638L306.92 109.362ZM308.58 103.328H311.78V101.328H308.58V103.328ZM310.78 102.328V113H312.78V102.328H310.78Z" fill="#F9F9F9"/>
  <path d="M48 152C48 143.163 55.1634 136 64 136H74C82.8366 136 90 143.163 90 152C90 160.837 82.8366 168 74 168H52C49.7909 168 48 166.209 48 164V152Z" fill="#EBEBED"/>
  <circle opacity="0.2" cx="61" cy="152" r="3" fill="#ADADB4"/>
  <circle opacity="0.5" cx="69" cy="152" r="3" fill="#ADADB4"/>
  <circle cx="77" cy="152" r="3" fill="#ADADB4"/>
  <path d="M147.707 209.904H145.511V213H144.335V204.324H147.707C149.411 204.324 150.503 205.44 150.503 207.108C150.503 208.728 149.399 209.904 147.707 209.904ZM147.503 205.38H145.511V208.848H147.455C148.619 208.848 149.267 208.164 149.267 207.096C149.267 206.004 148.607 205.38 147.503 205.38ZM150.589 210.06C150.589 208.248 151.885 206.976 153.649 206.976C155.401 206.976 156.697 208.248 156.697 210.06C156.697 211.872 155.401 213.144 153.649 213.144C151.885 213.144 150.589 211.872 150.589 210.06ZM151.729 210.06C151.729 211.284 152.509 212.136 153.649 212.136C154.777 212.136 155.569 211.284 155.569 210.06C155.569 208.836 154.777 207.984 153.649 207.984C152.509 207.984 151.729 208.836 151.729 210.06ZM158.536 213L156.616 207.132H157.78L158.752 210.18C158.884 210.612 159.004 211.056 159.112 211.572C159.208 211.056 159.364 210.564 159.496 210.18L160.48 207.132H161.632L162.604 210.18C162.7 210.468 162.892 211.152 162.988 211.572C163.084 211.104 163.192 210.696 163.36 210.18L164.344 207.132H165.52L163.516 213H162.448L161.428 209.856C161.236 209.268 161.116 208.812 161.056 208.488C160.996 208.776 160.888 209.16 160.672 209.868L159.652 213H158.536ZM168.35 213.144C166.622 213.144 165.434 211.896 165.434 210.072C165.434 208.236 166.598 206.964 168.302 206.964C169.97 206.964 171.062 208.116 171.062 209.856V210.276L166.526 210.288C166.61 211.524 167.258 212.208 168.374 212.208C169.25 212.208 169.826 211.848 170.018 211.176H171.074C170.786 212.436 169.802 213.144 168.35 213.144ZM168.302 207.912C167.318 207.912 166.694 208.5 166.55 209.532H169.934C169.934 208.56 169.298 207.912 168.302 207.912ZM175.281 207.084V208.116H174.777C173.709 208.116 173.049 208.764 173.049 209.892V213H171.921V207.144H172.977L173.049 208.032C173.289 207.42 173.877 207.012 174.681 207.012C174.885 207.012 175.053 207.036 175.281 207.084ZM178.26 213.144C176.532 213.144 175.344 211.896 175.344 210.072C175.344 208.236 176.508 206.964 178.212 206.964C179.88 206.964 180.972 208.116 180.972 209.856V210.276L176.436 210.288C176.52 211.524 177.168 212.208 178.284 212.208C179.16 212.208 179.736 211.848 179.928 211.176H180.984C180.696 212.436 179.712 213.144 178.26 213.144ZM178.212 207.912C177.228 207.912 176.604 208.5 176.46 209.532H179.844C179.844 208.56 179.208 207.912 178.212 207.912ZM184.184 213.144C182.48 213.144 181.448 211.872 181.448 210.084C181.448 208.284 182.492 206.964 184.232 206.964C185.132 206.964 185.888 207.36 186.284 208.08V204.168H187.4V213H186.392L186.296 211.932C185.912 212.736 185.12 213.144 184.184 213.144ZM184.412 212.124C185.564 212.124 186.272 211.272 186.272 210.048C186.272 208.848 185.564 207.984 184.412 207.984C183.26 207.984 182.588 208.848 182.588 210.048C182.588 211.26 183.26 212.124 184.412 212.124ZM192.529 213H191.509V204.168H192.637V208.14C193.021 207.372 193.813 206.964 194.773 206.964C196.453 206.964 197.461 208.284 197.461 210.096C197.461 211.872 196.405 213.144 194.701 213.144C193.777 213.144 192.997 212.736 192.613 211.932L192.529 213ZM192.649 210.048C192.649 211.272 193.345 212.124 194.497 212.124C195.649 212.124 196.333 211.26 196.333 210.048C196.333 208.848 195.649 207.984 194.497 207.984C193.345 207.984 192.649 208.848 192.649 210.048ZM197.541 215.628V214.704H198.297C198.837 214.704 199.269 214.62 199.545 213.876L199.749 213.312L197.385 207.132H198.573L200.277 211.86L202.017 207.132H203.181L200.409 214.32C200.013 215.328 199.425 215.748 198.525 215.748C198.153 215.748 197.841 215.7 197.541 215.628Z" fill="#757575"/>
  <path d="M208.255 213H206.719V204.228H210.067C212.059 204.228 213.223 205.236 213.223 206.964C213.223 208.14 212.671 208.98 211.639 209.4L213.307 213H211.627L210.139 209.724H208.255V213ZM208.255 205.596V208.368H210.067C211.039 208.368 211.615 207.852 211.615 206.964C211.615 206.088 211.039 205.596 210.067 205.596H208.255ZM216.372 213.156C214.608 213.156 213.372 211.872 213.372 210.036C213.372 208.176 214.584 206.892 216.324 206.892C218.1 206.892 219.228 208.08 219.228 209.928V210.372L214.764 210.384C214.872 211.428 215.424 211.956 216.396 211.956C217.2 211.956 217.728 211.644 217.896 211.08H219.252C219 212.376 217.92 213.156 216.372 213.156ZM216.336 208.092C215.472 208.092 214.944 208.56 214.8 209.448H217.776C217.776 208.632 217.212 208.092 216.336 208.092ZM220 215.748V207.072H221.356L221.452 207.972C221.812 207.288 222.592 206.892 223.492 206.892C225.16 206.892 226.264 208.104 226.264 209.964C226.264 211.812 225.256 213.156 223.492 213.156C222.604 213.156 221.836 212.808 221.464 212.208V215.748H220ZM221.476 210.036C221.476 211.104 222.136 211.836 223.144 211.836C224.176 211.836 224.788 211.092 224.788 210.036C224.788 208.98 224.176 208.224 223.144 208.224C222.136 208.224 221.476 208.968 221.476 210.036Z" fill="#0F0C38"/>
  </g>
  <rect y="207" width="370" height="82" fill="white"/>
  <rect width="370" height="127" transform="matrix(1 0 0 -1 0 207)" fill="url(#paint5_linear_99_5313)"/>
  <defs>
  <filter id="filter0_d_99_5313" x="0" y="12" width="370" height="252" filterUnits="userSpaceOnUse" color-interpolation-filters="sRGB">
  <feFlood flood-opacity="0" result="BackgroundImageFix"/>
  <feColorMatrix in="SourceAlpha" type="matrix" values="0 0 0 0 0 0 0 0 0 0 0 0 0 0 0 0 0 0 127 0" result="hardAlpha"/>
  <feOffset dy="12"/>
  <feGaussianBlur stdDeviation="12"/>
  <feComposite in2="hardAlpha" operator="out"/>
  <feColorMatrix type="matrix" values="0 0 0 0 0 0 0 0 0 0 0 0 0 0 0 0 0 0 0.05 0"/>
  <feBlend mode="normal" in2="BackgroundImageFix" result="effect1_dropShadow_99_5313"/>
  <feBlend mode="normal" in="SourceGraphic" in2="effect1_dropShadow_99_5313" result="shape"/>
  </filter>
  <linearGradient id="paint0_linear_99_5313" x1="1.37836e-06" y1="252" x2="375.16" y2="244.068" gradientUnits="userSpaceOnUse">
  <stop stop-color="#C6395C"/>
  <stop offset="1" stop-color="#F1793E"/>
  </linearGradient>
  <linearGradient id="paint1_linear_99_5313" x1="63.9" y1="68.1045" x2="72.0003" y2="68.1045" gradientUnits="userSpaceOnUse">
  <stop stop-color="#715EA9"/>
  <stop offset="1" stop-color="#5673B8"/>
  </linearGradient>
  <linearGradient id="paint2_linear_99_5313" x1="63.8994" y1="59.8687" x2="70.2006" y2="59.8687" gradientUnits="userSpaceOnUse">
  <stop stop-color="#8DCFB6"/>
  <stop offset="0.51" stop-color="#8DD2CF"/>
  <stop offset="1" stop-color="#8ED5E4"/>
  </linearGradient>
  <linearGradient id="paint3_linear_99_5313" x1="56" y1="59.9014" x2="63.5422" y2="59.9014" gradientUnits="userSpaceOnUse">
  <stop stop-color="#F3C133"/>
  <stop offset="0.24" stop-color="#EEA638"/>
  <stop offset="0.75" stop-color="#E77543"/>
  <stop offset="1" stop-color="#E46248"/>
  </linearGradient>
  <linearGradient id="paint4_linear_99_5313" x1="56" y1="68.1037" x2="63.5422" y2="68.1037" gradientUnits="userSpaceOnUse">
  <stop stop-color="#715EA9"/>
  <stop offset="0.1" stop-color="#7A5AA6"/>
  <stop offset="0.7" stop-color="#AD459A"/>
  <stop offset="1" stop-color="#C23E96"/>
  </linearGradient>
  <linearGradient id="paint5_linear_99_5313" x1="185" y1="0" x2="185" y2="127" gradientUnits="userSpaceOnUse">
  <stop stop-color="white"/>
  <stop offset="0.958333" stop-color="white" stop-opacity="0"/>
  </linearGradient>
  <clipPath id="clip0_99_5313">
  <rect width="16" height="16" fill="white" transform="translate(56 56)"/>
  </clipPath>
  </defs>
  </svg>
